
<svg width="63" height="43" viewBox="0 0 63 43" fill="none" xmlns="http://www.w3.org/2000/svg">
<path d="M10.624 16.6851C10.578 16.3776 10.5474 16.068 10.5325 15.7574C10.5306 13.8817 11.0829 12.0472 12.1199 10.4842C13.1569 8.92127 14.6325 7.69944 16.3615 6.97209C18.0904 6.24472 19.9957 6.04426 21.8381 6.39582C23.6806 6.74741 25.3782 7.63537 26.7178 8.94827C28.8164 6.55132 31.4829 4.71916 34.4732 3.61956C37.4632 2.51995 40.6814 2.18804 43.8329 2.6542C46.9845 3.12035 49.969 4.36971 52.5127 6.28785C55.0564 8.20597 57.0782 10.7316 58.3933 13.6335C59.7081 16.5353 60.2741 19.7207 60.0393 22.898C59.8044 26.0753 58.7761 29.1428 57.0488 31.8197C55.3214 34.4966 52.9501 36.6974 50.152 38.2209C47.3538 39.7441 44.2184 40.5409 41.0325 40.5386H15.2981C12.4256 40.5406 9.64183 39.5441 7.42333 37.7194C5.20486 35.8947 3.68973 33.3556 3.13737 30.5369C2.58502 27.7179 3.02981 24.7948 4.3956 22.2678C5.76136 19.7408 7.96316 17.7673 10.624 16.6851Z" fill="white" stroke="url(#paint0_linear_287_8332)" stroke-width="4" stroke-linecap="round" stroke-linejoin="round"/>
<defs>
<linearGradient id="paint0_linear_287_8332" x1="31.4987" y1="-9.64084" x2="31.4987" y2="40.5386" gradientUnits="userSpaceOnUse">
<stop stop-color="#56FF85"/>
<stop offset="1" stop-color="#7B61FF"/>
</linearGradient>
</defs>
</svg>
