<svg width="174" height="174" viewBox="0 0 174 174" fill="none" xmlns="http://www.w3.org/2000/svg">
    <mask id="path-1-outside-1_301_4989" maskUnits="userSpaceOnUse" x="25.3164" y="18.3599" width="123" height="138"
        fill="black">
        <rect fill="white" x="25.3164" y="18.3599" width="123" height="138" />
        <path
            d="M86.8336 147.386C82.3939 147.01 78.7417 142.37 77.4275 134.673C73.3124 140.356 54.5002 143.099 45.0942 139.768C40.4387 138.119 44.4241 136.47 49.3284 134.441C54.3327 132.371 60.2939 129.905 59.0073 126.639C56.2639 128.794 43.7225 129.578 39.0194 127.619C36.3351 126.5 38.1834 125.573 41.1756 124.072C43.4257 122.944 46.3227 121.491 48.4255 119.388C50.7294 117.084 47.746 111.227 43.9388 103.752C39.6502 95.3316 34.3164 84.8592 34.3164 75.1015C34.3164 11.446 139.939 11.446 139.939 75.1015C139.939 84.8592 134.605 95.3316 130.316 103.752C126.509 111.227 123.526 117.084 125.83 119.388C127.932 121.491 130.829 122.944 133.079 124.072C136.072 125.573 137.92 126.5 135.236 127.619C130.533 129.578 117.991 128.794 115.248 126.639C113.961 129.905 119.922 132.371 124.927 134.441C129.831 136.47 133.816 138.119 129.161 139.768C119.755 143.099 100.943 140.356 96.8275 134.673C95.5138 142.368 91.8632 147.007 87.4252 147.385C87.2255 147.411 87.0295 147.411 86.8336 147.386Z" />
    </mask>
    <path
        d="M86.8336 147.386C82.3939 147.01 78.7417 142.37 77.4275 134.673C73.3124 140.356 54.5002 143.099 45.0942 139.768C40.4387 138.119 44.4241 136.47 49.3284 134.441C54.3327 132.371 60.2939 129.905 59.0073 126.639C56.2639 128.794 43.7225 129.578 39.0194 127.619C36.3351 126.5 38.1834 125.573 41.1756 124.072C43.4257 122.944 46.3227 121.491 48.4255 119.388C50.7294 117.084 47.746 111.227 43.9388 103.752C39.6502 95.3316 34.3164 84.8592 34.3164 75.1015C34.3164 11.446 139.939 11.446 139.939 75.1015C139.939 84.8592 134.605 95.3316 130.316 103.752C126.509 111.227 123.526 117.084 125.83 119.388C127.932 121.491 130.829 122.944 133.079 124.072C136.072 125.573 137.92 126.5 135.236 127.619C130.533 129.578 117.991 128.794 115.248 126.639C113.961 129.905 119.922 132.371 124.927 134.441C129.831 136.47 133.816 138.119 129.161 139.768C119.755 143.099 100.943 140.356 96.8275 134.673C95.5138 142.368 91.8632 147.007 87.4252 147.385C87.2255 147.411 87.0295 147.411 86.8336 147.386Z"
        stroke="url(#paint0_linear_301_4989)" stroke-width="16.7309" stroke-linejoin="round"
        mask="url(#path-1-outside-1_301_4989)" />
    <circle cx="71.2664" cy="87.5789" r="8.1058" fill="white" />
    <circle cx="102.735" cy="87.5789" r="8.1058" fill="white" />
    <defs>
        <linearGradient id="paint0_linear_301_4989" x1="87.1275" y1="-10.7438" x2="87.1275" y2="147.404"
            gradientUnits="userSpaceOnUse">
            <stop stop-color="#39FFAC" />
            <stop offset="1" stop-color="#7B61FF" />
        </linearGradient>
    </defs>
</svg>