<svg width="36" height="36" viewBox="0 0 36 36" fill="none" xmlns="http://www.w3.org/2000/svg">
<mask id="path-1-outside-1_432_6050" maskUnits="userSpaceOnUse" x="5.00684" y="3.50586" width="26" height="29" fill="black">
<rect fill="white" x="5.00684" y="3.50586" width="26" height="29"/>
<path d="M17.9387 30.4902C17.0146 30.412 16.2543 29.4462 15.9808 27.844C15.1242 29.0269 11.2083 29.598 9.25032 28.9045C8.28123 28.5613 9.11083 28.2181 10.1317 27.7958C11.1734 27.3648 12.4143 26.8514 12.1464 26.1716C11.5754 26.6203 8.96478 26.7834 7.98581 26.3755C7.42704 26.1427 7.81178 25.9497 8.43462 25.6374C8.90301 25.4025 9.50605 25.1 9.94376 24.6623C10.4233 24.1827 9.80231 22.9634 9.00981 21.4074C8.11712 19.6547 7.00684 17.4748 7.00684 15.4437C7.00684 2.19325 28.993 2.19325 28.993 15.4437C28.993 17.4748 27.8827 19.6547 26.99 21.4074C26.1975 22.9634 25.5765 24.1827 26.056 24.6623C26.4937 25.1 27.0968 25.4025 27.5652 25.6374C28.188 25.9497 28.5728 26.1427 28.014 26.3755C27.035 26.7834 24.4244 26.6203 23.8533 26.1716C23.5855 26.8514 24.8264 27.3648 25.8681 27.7958C26.889 28.2181 27.7186 28.5613 26.7495 28.9045C24.7915 29.598 20.8756 29.0269 20.019 27.844C19.7456 29.4458 18.9857 30.4114 18.0619 30.4901C18.0203 30.4954 17.9795 30.4954 17.9387 30.4902Z"/>
</mask>
<path d="M17.9387 30.4902C17.0146 30.412 16.2543 29.4462 15.9808 27.844C15.1242 29.0269 11.2083 29.598 9.25032 28.9045C8.28123 28.5613 9.11083 28.2181 10.1317 27.7958C11.1734 27.3648 12.4143 26.8514 12.1464 26.1716C11.5754 26.6203 8.96478 26.7834 7.98581 26.3755C7.42704 26.1427 7.81178 25.9497 8.43462 25.6374C8.90301 25.4025 9.50605 25.1 9.94376 24.6623C10.4233 24.1827 9.80231 22.9634 9.00981 21.4074C8.11712 19.6547 7.00684 17.4748 7.00684 15.4437C7.00684 2.19325 28.993 2.19325 28.993 15.4437C28.993 17.4748 27.8827 19.6547 26.99 21.4074C26.1975 22.9634 25.5765 24.1827 26.056 24.6623C26.4937 25.1 27.0968 25.4025 27.5652 25.6374C28.188 25.9497 28.5728 26.1427 28.014 26.3755C27.035 26.7834 24.4244 26.6203 23.8533 26.1716C23.5855 26.8514 24.8264 27.3648 25.8681 27.7958C26.889 28.2181 27.7186 28.5613 26.7495 28.9045C24.7915 29.598 20.8756 29.0269 20.019 27.844C19.7456 29.4458 18.9857 30.4114 18.0619 30.4901C18.0203 30.4954 17.9795 30.4954 17.9387 30.4902Z" stroke="url(#paint0_linear_432_6050)" stroke-width="3.48268" stroke-linejoin="round" mask="url(#path-1-outside-1_432_6050)"/>
<circle cx="14.698" cy="18.0408" r="1.68729" fill="black"/>
<circle cx="21.2483" cy="18.0408" r="1.68729" fill="black"/>
<defs>
<linearGradient id="paint0_linear_432_6050" x1="17.9999" y1="-2.42573" x2="17.9999" y2="30.4941" gradientUnits="userSpaceOnUse">
<stop stop-color="#39FFAC"/>
<stop offset="1" stop-color="#7B61FF"/>
</linearGradient>
</defs>
</svg>
