<svg width="120" height="29" viewBox="0 0 120 29" fill="none" xmlns="http://www.w3.org/2000/svg">
<path d="M4.43359 19.9909V15.9742H15.6502C16.9891 15.9742 18.0501 15.6205 18.8333 14.9131C19.6164 14.1805 20.008 13.17 20.008 11.8816C20.008 10.5427 19.6164 9.51958 18.8333 8.81222C18.0501 8.10487 16.9891 7.75119 15.6502 7.75119H5.03989V27.9487H0V3.43128H15.1955C16.5597 3.43128 17.8354 3.59549 19.0228 3.9239C20.2354 4.25232 21.2838 4.75757 22.168 5.43966C23.0774 6.12175 23.7848 6.99331 24.29 8.05434C24.7953 9.11537 25.0479 10.3911 25.0479 11.8816C25.0479 13.3469 24.7953 14.5974 24.29 15.6331C23.7848 16.6689 23.0774 17.5152 22.168 18.172C21.2838 18.8036 20.2354 19.271 19.0228 19.5741C17.8354 19.852 16.5597 19.9909 15.1955 19.9909H4.43359Z" fill="white"/>
<path d="M30.2841 1.53658H35.2103V27.9487H30.2841V1.53658Z" fill="white"/>
<path d="M50.121 28.3655C48.2515 28.3655 46.5463 27.9613 45.0053 27.1529C43.4895 26.3192 42.2769 25.1698 41.3675 23.7045C40.4833 22.214 40.0412 20.4962 40.0412 18.551C40.0412 16.5552 40.4959 14.8247 41.4053 13.3595C42.3148 11.8943 43.54 10.7574 45.0811 9.94904C46.6473 9.11537 48.4157 8.69854 50.3862 8.69854C52.5588 8.69854 54.3019 9.14064 55.6156 10.0248C56.9545 10.8838 57.9271 12.0585 58.5334 13.549C59.1397 15.0395 59.4429 16.7068 59.4429 18.551C59.4429 19.6625 59.266 20.7993 58.9124 21.9614C58.5587 23.0982 58.0155 24.1593 57.2829 25.1445C56.5503 26.1045 55.5903 26.8876 54.403 27.4939C53.2156 28.075 51.7883 28.3655 50.121 28.3655ZM51.7125 24.5761C53.203 24.5761 54.4914 24.3235 55.5777 23.8182C56.664 23.313 57.4976 22.6056 58.0787 21.6962C58.6597 20.7867 58.9502 19.7383 58.9502 18.551C58.9502 17.2626 58.6471 16.1763 58.0408 15.2921C57.4597 14.3826 56.6261 13.7005 55.5398 13.2458C54.4788 12.7658 53.203 12.5258 51.7125 12.5258C49.6157 12.5258 47.9863 13.0816 46.8242 14.1932C45.6621 15.2795 45.0811 16.7321 45.0811 18.551C45.0811 19.7636 45.359 20.8246 45.9147 21.7341C46.4705 22.6182 47.241 23.313 48.2263 23.8182C49.2368 24.3235 50.3988 24.5761 51.7125 24.5761ZM58.9502 9.11537H63.8765V27.9487H59.2913C59.2913 27.9487 59.2534 27.7087 59.1776 27.2287C59.1271 26.7234 59.0766 26.0919 59.026 25.334C58.9755 24.5761 58.9502 23.8309 58.9502 23.0982V9.11537Z" fill="white"/>
<path d="M74.739 0.854492V5.1744H69.017V0.854492H74.739ZM69.3959 9.11537H74.3222V27.9487H69.3959V9.11537Z" fill="white"/>
<path d="M78.664 9.11537H93.291V12.9427H78.664V9.11537ZM83.5144 3.9618H88.4406V27.9487H83.5144V3.9618Z" fill="white"/>
<path d="M108.023 28.4034C105.648 28.4034 103.551 28.0245 101.732 27.2666C99.9386 26.5087 98.5365 25.4098 97.526 23.9698C96.5155 22.5046 96.0102 20.7109 96.0102 18.5889C96.0102 16.4668 96.5155 14.6732 97.526 13.2079C98.5365 11.7174 99.9386 10.5932 101.732 9.83536C103.551 9.07748 105.648 8.69854 108.023 8.69854C110.397 8.69854 112.469 9.07748 114.237 9.83536C116.031 10.5932 117.433 11.7174 118.443 13.2079C119.454 14.6732 119.959 16.4668 119.959 18.5889C119.959 20.7109 119.454 22.5046 118.443 23.9698C117.433 25.4098 116.031 26.5087 114.237 27.2666C112.469 28.0245 110.397 28.4034 108.023 28.4034ZM108.023 24.614C109.336 24.614 110.511 24.3866 111.547 23.9319C112.608 23.4519 113.441 22.7698 114.048 21.8856C114.654 20.9762 114.957 19.8773 114.957 18.5889C114.957 17.3005 114.654 16.2015 114.048 15.2921C113.441 14.3574 112.62 13.65 111.585 13.17C110.549 12.69 109.362 12.45 108.023 12.45C106.709 12.45 105.522 12.69 104.461 13.17C103.4 13.65 102.553 14.3447 101.922 15.2542C101.315 16.1636 101.012 17.2752 101.012 18.5889C101.012 19.8773 101.315 20.9762 101.922 21.8856C102.528 22.7698 103.362 23.4519 104.423 23.9319C105.484 24.3866 106.684 24.614 108.023 24.614Z" fill="white"/>
</svg>
