<svg width="395" height="388" viewBox="0 0 395 388" fill="none" xmlns="http://www.w3.org/2000/svg">
<g clip-path="url(#clip0_1_32)">
<rect width="395" height="388" fill="black"/>
<rect x="-10.2141" y="-10.0617" width="414.681" height="411.556" fill="#121212"/>
<path d="M195.845 -63.9514L257.355 -32.6299C255.42 -30.9711 253.204 -29.0617 250.753 -26.9345C241.465 -18.8733 228.789 -7.67053 215.247 4.88959C188.417 29.7731 157.337 60.7481 143.061 83.1819C124.839 111.816 116.139 144.802 112.229 164.626C112.149 165.032 111.995 165.263 111.873 165.394C111.811 165.461 111.75 165.51 111.696 165.545C103.35 153.134 93.029 133.114 91.2372 108.346C89.4608 83.7889 96.0075 53.8635 122.546 21.2218C159.936 -24.7674 179.384 -46.8953 189.42 -57.4839C192.358 -60.5839 194.424 -62.6244 195.845 -63.9514ZM198.346 -66.0939C198.346 -66.0937 198.341 -66.0906 198.332 -66.0849C198.341 -66.0911 198.346 -66.094 198.346 -66.0939Z" stroke="url(#paint0_linear_1_32)" stroke-width="14.989"/>
<path d="M-88.9377 406.388L-128.347 349.719C-125.857 349.171 -123.002 348.536 -119.837 347.819C-107.842 345.104 -91.3772 341.22 -73.5069 336.55C-38.1031 327.298 3.92495 314.686 27.1074 301.66C56.6969 285.035 79.9517 260.075 92.7643 244.451C93.0268 244.131 93.2717 244.001 93.4411 243.943C93.5272 243.913 93.6042 243.899 93.6688 243.894C95.1598 258.775 94.7954 281.296 84.6706 303.971C74.6324 326.453 54.722 349.733 15.9091 365.96C-38.7747 388.823 -66.3702 399.135 -80.2185 403.725C-84.2728 405.069 -87.0578 405.891 -88.9377 406.388ZM-92.1537 407.095C-92.1536 407.095 -92.1481 407.094 -92.1374 407.094C-92.1485 407.095 -92.1538 407.095 -92.1537 407.095Z" stroke="url(#paint1_linear_1_32)" stroke-width="14.989"/>
<path d="M510.01 316.844L531.391 251.105C528.843 251.301 525.917 251.518 522.669 251.748C510.385 252.616 493.478 253.659 474.996 254.355C438.38 255.733 394.443 255.807 368.452 250.032C335.264 242.658 305.738 225.454 288.937 214.188C288.594 213.957 288.322 213.903 288.143 213.896C288.052 213.893 287.974 213.902 287.91 213.915C290.785 228.608 297.649 250.095 313.919 268.906C330.05 287.557 355.879 304.116 397.794 308.438C456.831 314.526 486.269 316.424 500.873 316.815C505.153 316.93 508.063 316.911 510.01 316.844ZM513.292 316.591C513.292 316.591 513.286 316.592 513.276 316.594C513.287 316.592 513.292 316.591 513.292 316.591Z" stroke="url(#paint2_linear_1_32)" stroke-width="14.989"/>
<path d="M194.85 262.378C195.244 262.738 195.65 263.079 196.058 263.403C198.075 264.998 200.569 266.466 203.199 267.7C208.364 270.123 214.664 271.922 219.626 271.666C220.279 271.632 220.958 271.552 221.597 271.372C222.197 271.203 223.081 270.86 223.803 270.078C224.653 269.158 224.948 267.994 224.816 266.921C224.705 266.009 224.309 265.297 224.025 264.865C223.55 264.14 222.886 263.463 222.267 262.894C222.368 262.916 222.469 262.936 222.569 262.956C224.249 263.294 226.055 263.509 227.618 263.344C228.263 263.275 229.645 263.094 230.706 262.11C231.379 261.485 231.84 260.614 231.912 259.61C231.976 258.718 231.715 257.999 231.509 257.568C231.126 256.76 230.514 256.094 230.127 255.692C229.694 255.242 229.174 254.756 228.693 254.307L228.651 254.268C227.152 252.869 225.695 251.476 224.777 249.974C224.9 249.659 225.174 249.146 225.712 248.401C226.945 246.693 228.926 244.608 231.419 241.996C231.507 241.904 231.595 241.812 231.684 241.718C236.986 236.165 244.259 228.547 246.826 219.941C250.931 206.178 248.277 193.982 241.63 184.426C235.044 174.958 224.657 168.229 213.409 164.908C202.161 161.587 189.765 161.589 179.055 165.95C168.245 170.351 159.334 179.132 155.228 192.896C152.661 201.502 154.581 211.833 155.98 219.366C156.003 219.492 156.026 219.618 156.05 219.742C156.707 223.285 157.223 226.107 157.321 228.208C157.363 229.124 157.312 229.702 157.242 230.034C155.65 230.794 153.664 231.171 151.641 231.53L151.585 231.54C150.935 231.655 150.233 231.78 149.623 231.922C149.078 232.049 148.2 232.276 147.436 232.744C147.028 232.994 146.414 233.455 145.979 234.237C145.489 235.118 145.398 236.098 145.62 236.987C145.969 238.388 147.028 239.289 147.531 239.697C148.75 240.684 150.382 241.484 151.975 242.113C152.07 242.15 152.165 242.187 152.262 242.224C151.432 242.366 150.504 242.573 149.708 242.922C149.233 243.13 148.511 243.512 147.918 244.215C147.219 245.044 146.829 246.179 147.036 247.411C147.213 248.459 147.766 249.227 148.176 249.693C148.613 250.191 149.138 250.627 149.667 251.009C153.685 253.917 159.951 255.829 165.609 256.601C168.49 256.995 171.385 257.118 173.949 256.875C174.469 256.826 174.997 256.759 175.523 256.672C175.936 261.555 177.967 265.771 182.212 267.453C182.575 267.606 182.952 267.716 183.337 267.785C187.815 268.677 191.829 266.246 194.85 262.378Z" stroke="url(#paint3_linear_1_32)" stroke-width="6.62729" stroke-linejoin="round"/>
<ellipse cx="6.72202" cy="6.69348" rx="6.72202" ry="6.69348" transform="matrix(0.959068 0.283176 -0.285831 0.95828 180.846 203.656)" fill="white"/>
<ellipse cx="6.72202" cy="6.69348" rx="6.72202" ry="6.69348" transform="matrix(0.959068 0.283176 -0.285831 0.95828 205.874 211.045)" fill="white"/>
</g>
<defs>
<linearGradient id="paint0_linear_1_32" x1="238.301" y1="119.46" x2="120.03" y2="1.18939" gradientUnits="userSpaceOnUse">
<stop stop-color="#39FFAC"/>
<stop offset="1" stop-color="#7B61FF"/>
</linearGradient>
<linearGradient id="paint1_linear_1_32" x1="-36.7374" y1="235.994" x2="10.2191" y2="391.51" gradientUnits="userSpaceOnUse">
<stop stop-color="#D2FB3F"/>
<stop offset="1" stop-color="#39FFAC"/>
</linearGradient>
<linearGradient id="paint2_linear_1_32" x1="410.645" y1="168.626" x2="410.645" y2="331.271" gradientUnits="userSpaceOnUse">
<stop stop-color="#FFA5A5"/>
<stop offset="1" stop-color="#7B61FF"/>
</linearGradient>
<linearGradient id="paint3_linear_1_32" x1="221.587" y1="137.488" x2="184.062" y2="264.578" gradientUnits="userSpaceOnUse">
<stop stop-color="#39FFAC"/>
<stop offset="1" stop-color="#7B61FF"/>
</linearGradient>
<clipPath id="clip0_1_32">
<rect width="395" height="388" fill="white"/>
</clipPath>
</defs>
</svg>
