<svg width="24" height="24" viewBox="0 0 24 24" fill="none" xmlns="http://www.w3.org/2000/svg">
<g clip-path="url(#clip0_287_7370)">
<path d="M11.9999 22.7137C17.9173 22.7137 22.7142 17.9168 22.7142 11.9994C22.7142 6.0821 17.9173 1.28516 11.9999 1.28516C6.08259 1.28516 1.28564 6.0821 1.28564 11.9994C1.28564 17.9168 6.08259 22.7137 11.9999 22.7137Z" stroke="white" stroke-width="2" stroke-linecap="round" stroke-linejoin="round"/>
<path d="M12.0002 12.9936C14.0706 12.9936 15.749 11.3152 15.749 9.24486C15.749 7.17447 14.0706 5.49609 12.0002 5.49609C9.92984 5.49609 8.25146 7.17447 8.25146 9.24486C8.25146 11.3152 9.92984 12.9936 12.0002 12.9936Z" stroke="white" stroke-width="2" stroke-linecap="round" stroke-linejoin="round"/>
<path d="M18.3503 20.63C16.5732 21.9397 14.3771 22.7137 12.0001 22.7137C9.62317 22.7137 7.427 21.9397 5.6499 20.63C6.00382 19.2972 6.76931 18.1061 7.84208 17.2292C9.01554 16.27 10.4845 15.7461 12.0001 15.7461C13.5157 15.7461 14.9847 16.27 16.1581 17.2292C17.2308 18.1061 17.9964 19.2972 18.3503 20.63Z" stroke="white" stroke-width="2" stroke-linecap="round" stroke-linejoin="round"/>
</g>
<defs>
<clipPath id="clip0_287_7370">
<rect width="24" height="24" fill="white"/>
</clipPath>
</defs>
</svg>
