<svg width="25" height="24" viewBox="0 0 25 24" fill="none" xmlns="http://www.w3.org/2000/svg">
<path d="M8.77353 21.9935C8.35106 21.8528 7.92859 21.5713 7.64694 21.0082C7.3653 20.7267 7.08365 20.3045 6.66118 19.7414C6.09789 18.8969 5.53459 17.7709 5.11212 16.6448C4.68965 15.378 4.54883 14.1112 4.54883 12.8444C4.54883 11.4369 4.83047 10.3108 5.39377 9.32554C5.81624 8.481 6.52036 7.91798 7.22447 7.35496C7.92859 6.93269 8.77353 6.65118 9.61847 6.65118C9.90012 6.65118 10.1818 6.65118 10.6042 6.79194C10.8859 6.79194 11.1675 6.93269 11.59 7.07345C12.0125 7.21421 12.2941 7.35496 12.4349 7.35496C12.7166 7.49572 12.9982 7.49572 13.1391 7.49572C13.2799 7.49572 13.4207 7.49572 13.7024 7.35496C13.8432 7.35496 14.1248 7.21421 14.4065 7.07345C14.6881 6.93269 14.9698 6.79194 15.2514 6.79194C15.5331 6.79194 15.8147 6.65118 16.0963 6.65118C16.378 6.65118 16.8005 6.51043 17.0821 6.65118C17.6454 6.65118 18.2087 6.79194 18.772 7.07345C19.6169 7.35496 20.3211 8.05874 20.8843 8.76252C20.7435 8.76252 20.4619 8.90327 20.3211 9.18478C19.8986 9.60705 19.4761 10.0293 19.1945 10.4516C18.9128 11.1554 18.6312 11.8591 18.6312 12.7037C18.6312 13.689 18.9128 14.5335 19.3353 15.2373C19.6169 15.8003 20.1802 16.2226 20.6027 16.5041C21.0252 16.6448 21.3068 16.7856 21.4476 16.9263C21.4476 17.2078 21.3068 17.6301 21.166 17.7709C20.8843 18.6154 20.4619 19.1784 20.0394 19.8822C19.6169 20.4452 19.3353 20.8675 19.1945 21.0082C18.772 21.4305 18.4903 21.8528 18.0679 21.9935C17.7862 22.275 17.3638 22.4158 16.8005 22.4158C16.5188 22.4158 16.2372 22.4158 15.9555 22.275C15.8147 22.275 15.5331 22.1343 15.2514 21.9935C14.8289 21.8528 14.6881 21.712 14.4065 21.712C14.1248 21.5713 13.7024 21.5713 13.4207 21.5713C13.1391 21.5713 12.7166 21.5713 12.4349 21.712C12.1533 21.712 11.8716 21.8528 11.59 21.9935C11.1675 22.1343 11.0267 22.275 10.8859 22.275C10.6042 22.4158 10.3226 22.4158 10.0409 22.4158C9.61847 22.4158 9.196 22.275 8.77353 21.9935ZM14.6881 5.94741C14.1248 6.22892 13.5615 6.36967 12.9982 6.36967C12.8574 5.80665 12.9982 5.24363 13.2799 4.53985C13.5615 3.97683 13.7024 3.55456 14.1248 3.1323C14.5473 2.71003 14.9698 2.28776 15.5331 2.00625C16.0963 1.72474 16.6596 1.58398 17.2229 1.58398C17.2229 2.14701 17.0821 2.71003 16.9413 3.41381C16.8005 3.97683 16.378 4.3991 16.0963 4.82136C15.6739 5.38438 15.2514 5.66589 14.6881 5.94741Z" fill="black"/>
</svg>
