<svg width="25" height="24" viewBox="0 0 25 24" fill="none" xmlns="http://www.w3.org/2000/svg">
<path fill-rule="evenodd" clip-rule="evenodd" d="M5.46826 0C4.91598 0 4.46826 0.447715 4.46826 1V19C4.46826 19.5523 4.91598 20 5.46826 20H23.4683C24.0206 20 24.4683 19.5523 24.4683 19V1C24.4683 0.447715 24.0206 0 23.4683 0H5.46826ZM0.468262 23V4H2.46826V22H20.4683V24H1.46826C0.915977 24 0.468262 23.5523 0.468262 23ZM15.0684 13H9.46826V15H15.0684V13ZM9.46826 9H19.4683V11H9.46826V9ZM19.4683 5H9.46826V7H19.4683V5Z" fill="black"/>
</svg>
