<svg width="25" height="25" viewBox="0 0 25 25" fill="none" xmlns="http://www.w3.org/2000/svg">
<path fill-rule="evenodd" clip-rule="evenodd" d="M8.00088 3.24744C8.14283 2.98634 8.41331 2.82422 8.707 2.82422H16.145C16.4387 2.82422 16.7092 2.98634 16.8511 3.24744L18.4888 6.26004L19.0426 6.3085L19.1494 6.31787C21.0624 6.48565 22.6361 7.97896 22.9169 9.91265C23.1224 11.3271 23.3149 12.8291 23.3149 14.3757C23.3149 15.9223 23.1224 17.4243 22.9169 18.8388C22.6361 20.7726 21.0624 22.2658 19.1494 22.4335C16.9412 22.6273 14.6902 22.8242 12.426 22.8242C10.1618 22.8242 7.91077 22.6273 5.70259 22.4335C3.78959 22.2658 2.21598 20.7726 1.93503 18.8388C1.72952 17.4243 1.53711 15.9223 1.53711 14.3757C1.53711 12.8291 1.72952 11.3271 1.93503 9.91265C2.21598 7.97894 3.78959 6.48564 5.70259 6.31787L5.83072 6.30663L6.36315 6.26004L8.00088 3.24744ZM16.6412 13.8926C16.6412 16.2566 14.754 18.1731 12.426 18.1731C10.098 18.1731 8.21082 16.2566 8.21082 13.8926C8.21082 11.5285 10.098 9.61203 12.426 9.61203C14.754 9.61203 16.6412 11.5285 16.6412 13.8926Z" fill="white"/>
</svg>
