<svg width="25" height="25" viewBox="0 0 25 25" fill="none" xmlns="http://www.w3.org/2000/svg">
<path d="M12.5001 2.41504C6.43379 2.41504 1.50012 6.47523 1.50012 11.4761C1.51872 12.6759 1.79991 13.8572 2.32392 14.9367C2.84794 16.0162 3.60206 16.9679 4.53327 17.7248L2.3448 22.1113C2.29967 22.1993 2.28282 22.2991 2.29657 22.397C2.31031 22.495 2.35398 22.5863 2.42158 22.6584C2.51314 22.7503 2.63742 22.8021 2.76713 22.8024C2.83353 22.817 2.9023 22.817 2.9687 22.8024L8.85263 20.0284C10.0388 20.3673 11.2665 20.5385 12.5001 20.5371C18.5664 20.5371 23.5 16.4673 23.5 11.4761C23.5 6.48483 18.5664 2.41504 12.5001 2.41504ZM7.7008 12.9735C7.41604 12.9735 7.13767 12.889 6.9009 12.7308C6.66413 12.5726 6.47958 12.3477 6.37061 12.0847C6.26164 11.8216 6.23312 11.5321 6.28868 11.2528C6.34423 10.9735 6.48136 10.717 6.68272 10.5156C6.88407 10.3142 7.14062 10.1771 7.41991 10.1216C7.6992 10.066 7.98869 10.0945 8.25178 10.2035C8.51487 10.3125 8.73973 10.497 8.89794 10.7338C9.05614 10.9706 9.14058 11.2489 9.14058 11.5337C9.14058 11.7228 9.10334 11.91 9.03099 12.0847C8.95863 12.2593 8.85258 12.4181 8.71888 12.5518C8.58519 12.6855 8.42646 12.7915 8.25178 12.8639C8.0771 12.9362 7.88987 12.9735 7.7008 12.9735ZM12.5001 10.0939C12.7848 10.0939 13.0632 10.1783 13.3 10.3365C13.5368 10.4947 13.7213 10.7196 13.8303 10.9827C13.9392 11.2458 13.9678 11.5353 13.9122 11.8146C13.8567 12.0939 13.7195 12.3504 13.5182 12.5518C13.3168 12.7531 13.0603 12.8902 12.781 12.9458C12.5017 13.0014 12.2122 12.9728 11.9491 12.8639C11.686 12.7549 11.4612 12.5704 11.3029 12.3336C11.1447 12.0968 11.0603 11.8184 11.0603 11.5337C11.0603 11.1518 11.212 10.7856 11.482 10.5156C11.752 10.2456 12.1182 10.0939 12.5001 10.0939ZM17.2994 12.9735C17.0146 12.9735 16.7362 12.889 16.4995 12.7308C16.2627 12.5726 16.0782 12.3477 15.9692 12.0847C15.8602 11.8216 15.8317 11.5321 15.8872 11.2528C15.9428 10.9735 16.0799 10.717 16.2813 10.5156C16.4826 10.3142 16.7392 10.1771 17.0185 10.1216C17.2978 10.066 17.5873 10.0945 17.8503 10.2035C18.1134 10.3125 18.3383 10.497 18.4965 10.7338C18.6547 10.9706 18.7392 11.2489 18.7392 11.5337C18.7392 11.7228 18.7019 11.91 18.6296 12.0847C18.5572 12.2593 18.4511 12.4181 18.3175 12.5518C18.1838 12.6855 18.025 12.7915 17.8503 12.8639C17.6757 12.9362 17.4884 12.9735 17.2994 12.9735Z" fill="#0F0F11"/>
</svg>
