<svg width="25" height="25" viewBox="0 0 25 25" fill="none" xmlns="http://www.w3.org/2000/svg">
<g clip-path="url(#clip0_678_11587)">
<path d="M17.8501 6.60742H15.2101C13.4517 6.60742 11.7653 7.30594 10.522 8.5493C9.27859 9.79267 8.58008 11.479 8.58008 13.2374C8.58008 14.9958 9.27859 16.6822 10.522 17.9255C11.7653 19.1689 13.4517 19.8674 15.2101 19.8674H16.2101L20.6701 22.8674V19.2174C22.0284 18.5724 23.1267 17.4842 23.7841 16.1318C24.4416 14.7795 24.619 13.2436 24.2873 11.7769C23.9555 10.3103 23.1344 9.00028 21.9589 8.06251C20.7835 7.12474 19.3238 6.61508 17.8201 6.61742L17.8501 6.60742ZM16.5001 17.0674C16.3232 17.0694 16.1498 17.0186 16.0019 16.9216C15.854 16.8246 15.7384 16.6857 15.6698 16.5227C15.6012 16.3596 15.5827 16.1799 15.6168 16.0063C15.6508 15.8327 15.7357 15.6732 15.8608 15.5482C15.9859 15.4231 16.1454 15.3381 16.3189 15.3041C16.4925 15.2701 16.6723 15.2885 16.8353 15.3571C16.9983 15.4257 17.1372 15.5414 17.2343 15.6892C17.3313 15.8371 17.3821 16.0106 17.3801 16.1874C17.3801 16.4208 17.2874 16.6446 17.1223 16.8097C16.9573 16.9747 16.7335 17.0674 16.5001 17.0674ZM17.1301 13.1574V13.7774C17.1275 13.9092 17.074 14.0349 16.9808 14.1281C16.8876 14.2214 16.7619 14.2749 16.6301 14.2774C16.4975 14.2774 16.3703 14.2247 16.2765 14.131C16.1828 14.0372 16.1301 13.91 16.1301 13.7774V12.7174C16.1301 12.5848 16.1828 12.4576 16.2765 12.3639C16.3703 12.2701 16.4975 12.2174 16.6301 12.2174C16.8279 12.2174 17.0212 12.1588 17.1856 12.0489C17.3501 11.939 17.4783 11.7828 17.554 11.6001C17.6296 11.4174 17.6494 11.2163 17.6109 11.0223C17.5723 10.8284 17.477 10.6502 17.3372 10.5103C17.1973 10.3705 17.0191 10.2752 16.8252 10.2366C16.6312 10.1981 16.4301 10.2179 16.2474 10.2935C16.0647 10.3692 15.9085 10.4974 15.7986 10.6619C15.6887 10.8263 15.6301 11.0196 15.6301 11.2174C15.6275 11.3492 15.574 11.4749 15.4808 11.5681C15.3876 11.6614 15.2619 11.7149 15.1301 11.7174C14.9975 11.7174 14.8703 11.6647 14.7765 11.571C14.6828 11.4772 14.6301 11.35 14.6301 11.2174C14.6439 10.8486 14.7594 10.4908 14.964 10.1836C15.1685 9.8764 15.4541 9.63179 15.7891 9.47686C16.1241 9.32192 16.4954 9.2627 16.8619 9.30574C17.2285 9.34879 17.576 9.49242 17.866 9.72075C18.1559 9.94907 18.3771 10.2532 18.5049 10.5994C18.6327 10.9456 18.6623 11.3205 18.5902 11.6825C18.5182 12.0444 18.3474 12.3794 18.0967 12.6503C17.8461 12.9212 17.5254 13.1175 17.1701 13.2174L17.1301 13.1574Z" fill="#0F0F11"/>
<path d="M11.94 3.40719C11.4741 2.8483 10.8939 2.39576 10.2384 2.08008C9.58292 1.7644 8.86735 1.59292 8.13996 1.57719H5.36996C4.26787 1.57248 3.19717 1.94405 2.33491 2.63044C1.47265 3.31683 0.87047 4.27695 0.627935 5.35203C0.3854 6.42711 0.517039 7.55278 1.00108 8.54289C1.48513 9.533 2.29259 10.3283 3.28996 10.7972V14.7372L7.21996 11.7372C7.50451 10.2706 8.18525 8.91 9.18832 7.80292C10.1914 6.69584 11.4785 5.88459 12.91 5.45719C12.7912 4.69459 12.4543 3.98264 11.94 3.40719ZM3.93996 6.90719C3.81248 6.94075 3.67904 6.9449 3.54973 6.91934C3.42041 6.89377 3.29859 6.83915 3.19348 6.7596C3.08836 6.68005 3.0027 6.57766 2.94295 6.46015C2.88321 6.34265 2.85095 6.2131 2.84861 6.0813C2.84627 5.9495 2.87391 5.81889 2.92945 5.69934C2.98498 5.57978 3.06696 5.47442 3.16918 5.39119C3.27141 5.30796 3.39121 5.24905 3.51954 5.21891C3.64787 5.18877 3.78137 5.18818 3.90996 5.21719C4.12334 5.24017 4.32069 5.3412 4.4641 5.50087C4.6075 5.66054 4.68682 5.86758 4.68682 6.08219C4.68682 6.2968 4.6075 6.50384 4.4641 6.66351C4.32069 6.82318 4.12334 6.92422 3.90996 6.94719L3.93996 6.90719ZM6.29996 6.90719C6.17248 6.94075 6.03904 6.9449 5.90973 6.91934C5.78041 6.89377 5.65859 6.83915 5.55347 6.7596C5.44836 6.68005 5.3627 6.57766 5.30295 6.46015C5.24321 6.34265 5.21095 6.2131 5.20861 6.0813C5.20627 5.9495 5.23391 5.81889 5.28945 5.69934C5.34498 5.57978 5.42696 5.47442 5.52918 5.39119C5.63141 5.30796 5.75121 5.24905 5.87954 5.21891C6.00787 5.18877 6.14137 5.18818 6.26996 5.21719C6.48334 5.24017 6.68069 5.3412 6.82409 5.50087C6.9675 5.66054 7.04682 5.86758 7.04682 6.08219C7.04682 6.2968 6.9675 6.50384 6.82409 6.66351C6.68069 6.82318 6.48334 6.92422 6.26996 6.94719L6.29996 6.90719ZM8.65996 6.90719C8.53248 6.94075 8.39904 6.9449 8.26972 6.91934C8.14041 6.89377 8.01859 6.83915 7.91347 6.7596C7.80836 6.68005 7.7227 6.57766 7.66295 6.46015C7.60321 6.34265 7.57095 6.2131 7.56861 6.0813C7.56627 5.9495 7.59391 5.81889 7.64945 5.69934C7.70498 5.57978 7.78696 5.47442 7.88918 5.39119C7.99141 5.30796 8.11121 5.24905 8.23954 5.21891C8.36787 5.18877 8.50137 5.18818 8.62996 5.21719C8.84334 5.24017 9.0407 5.3412 9.1841 5.50087C9.3275 5.66054 9.40682 5.86758 9.40682 6.08219C9.40682 6.2968 9.3275 6.50384 9.1841 6.66351C9.0407 6.82318 8.84334 6.92422 8.62996 6.94719L8.65996 6.90719Z" fill="#0F0F11"/>
</g>
<defs>
<clipPath id="clip0_678_11587">
<rect width="24" height="24" fill="white" transform="translate(0.5 0.216797)"/>
</clipPath>
</defs>
</svg>
