<svg width="24" height="24" viewBox="0 0 24 24" fill="none" xmlns="http://www.w3.org/2000/svg">
<g clip-path="url(#clip0_287_7376)">
<path d="M6.90424 2.82387C8.52455 1.85332 10.3778 1.34044 12.2665 1.33985C13.838 1.33892 15.3894 1.6927 16.8051 2.37481C18.2207 3.05692 19.4643 4.04977 20.4428 5.27936C21.4213 6.50894 22.1098 7.94355 22.4567 9.4762C22.8037 11.0089 22.8003 12.6001 22.4466 14.1312C22.093 15.6624 21.3983 17.094 20.4143 18.3192C19.4305 19.5446 18.1827 20.532 16.764 21.208C15.3454 21.8839 13.7924 22.2309 12.221 22.223C10.9094 22.2167 9.61321 21.9631 8.39948 21.4783L2.69231 22.4285C2.05465 22.5348 1.53342 21.9237 1.73879 21.3108L3.19878 16.9531C2.38552 15.5267 1.91841 13.9253 1.83993 12.2785C1.75005 10.3919 2.17357 8.5162 3.06539 6.85125C3.9572 5.1863 5.28392 3.79443 6.90424 2.82387Z" stroke="white" stroke-width="2" stroke-linecap="round" stroke-linejoin="round"/>
<path d="M8.25 9.42773H16.6071" stroke="white" stroke-width="2" stroke-linecap="round" stroke-linejoin="round"/>
<path d="M8.25 14.5723H14.5714" stroke="white" stroke-width="2" stroke-linecap="round" stroke-linejoin="round"/>
</g>
<defs>
<clipPath id="clip0_287_7376">
<rect width="24" height="24" fill="white"/>
</clipPath>
</defs>
</svg>
