<svg width="25" height="24" viewBox="0 0 25 24" fill="none" xmlns="http://www.w3.org/2000/svg">
<path d="M4.60901 0.9287C5.90557 0.836095 7.80557 0.75 10.3887 0.75C12.9718 0.75 14.8718 0.836095 16.1683 0.9287C17.819 1.04659 19.0921 2.31965 19.21 3.97034C19.2216 4.13359 19.2332 4.3064 19.2445 4.48894C18.987 4.32552 18.7687 4.2037 18.59 4.11338C18.4803 4.05793 18.3855 4.01436 18.3057 3.98036C18.2892 3.97328 18.2732 3.96663 18.258 3.96037C17.9996 3.84973 17.7185 3.78666 17.4273 3.77958C16.665 3.76105 15.8199 3.75 14.8887 3.75C12.2723 3.75 10.3366 3.8372 9.00217 3.93251C6.60727 4.10356 4.74223 5.9686 4.57118 8.3635C4.47587 9.69795 4.38867 11.6336 4.38867 14.25C4.38867 15.9748 4.42657 17.4037 4.4797 18.5597C2.89222 18.3862 1.68217 17.137 1.56737 15.5296C1.47477 14.2331 1.38867 12.3331 1.38867 9.75C1.38867 7.1669 1.47477 5.2669 1.56737 3.97035C1.68527 2.31965 2.95832 1.04659 4.60901 0.9287Z" fill="black"/>
<path d="M16.5792 5.26295C16.0519 5.25465 15.4887 5.25 14.8887 5.25C12.3056 5.25 10.4056 5.3361 9.10902 5.4287C7.45832 5.5466 6.18527 6.81965 6.06737 8.47035C5.97477 9.7669 5.88867 11.6669 5.88867 14.25C5.88867 16.8331 5.97477 18.7331 6.06737 20.0296C6.18527 21.6803 7.45832 22.9534 9.10902 23.0713C10.4056 23.1639 12.3056 23.25 14.8887 23.25C17.4718 23.25 19.3718 23.1639 20.6683 23.0713C22.319 22.9534 23.5921 21.6803 23.71 20.0296C23.8026 18.7331 23.8887 16.8331 23.8887 14.25C23.8887 13.6388 23.8839 13.0657 23.8753 12.5299C22.2785 12.8545 20.4834 12.8402 18.8659 12.3516C17.9429 12.0727 17.2294 11.3636 16.9217 10.4713C16.352 8.8194 16.2408 6.8977 16.5792 5.26295Z" fill="black"/>
<path d="M23.6062 11.0538C23.5235 10.9035 23.4118 10.7164 23.2627 10.4939C22.8643 9.89924 22.1989 9.05094 21.1077 7.97179C20.0184 6.89459 19.1792 6.24369 18.5962 5.85634C18.3816 5.71374 18.2016 5.60679 18.0564 5.52734C17.7643 6.89724 17.8507 8.56399 18.3397 9.98224C18.495 10.4323 18.851 10.78 19.2997 10.9155C20.659 11.3262 22.213 11.3419 23.6062 11.0538Z" fill="black"/>
</svg>
