<svg width="16" height="17" viewBox="0 0 16 17" fill="none" xmlns="http://www.w3.org/2000/svg">
<path d="M5.71887 2.44141H3.69507C3.1538 2.44141 2.65452 2.733 2.38859 3.20443L0.604206 6.36764C0.530936 6.49754 0.478826 6.63471 0.447266 6.77474H4.7644L5.71887 2.44141Z" fill="#0F0F11"/>
<path d="M5.856 7.77474H9.33313C9.60926 7.77474 9.83313 7.55087 9.83313 7.27474C9.83313 6.99861 9.60926 6.77474 9.33313 6.77474H5.78833L6.7428 2.44141H9.25633L9.9041 5.38227C9.9635 5.65197 10.2303 5.82244 10.4999 5.76304C10.7696 5.70364 10.9401 5.43687 10.8807 5.16721L10.2803 2.44141H12.3047C12.846 2.44141 13.3453 2.733 13.6112 3.20442L15.3956 6.36764C15.7264 6.95411 15.6259 7.68917 15.1498 8.16527L14.3447 8.97031L13.8297 7.66444C13.4135 6.60924 11.9202 6.60924 11.504 7.66444L10.9531 9.06124L9.55633 9.61214C8.50113 10.0283 8.50113 11.5216 9.55633 11.9378L10.8622 12.4528L8.82483 14.4902C8.6453 14.6698 8.4218 14.7785 8.18896 14.8166L8.1522 14.7895L5.856 7.77474Z" fill="#0F0F11"/>
<path d="M0.568604 7.77539H4.80389L6.91803 14.2339L0.850074 8.16592C0.733437 8.04929 0.63934 7.91712 0.568604 7.77539Z" fill="#0F0F11"/>
<path d="M12.4343 8.03135C12.5175 7.82028 12.8162 7.82028 12.8994 8.03135L13.5565 9.69751C13.5904 9.78341 13.6584 9.85141 13.7443 9.88528L15.4105 10.5424C15.6215 10.6256 15.6215 10.9243 15.4105 11.0075L13.7443 11.6647C13.6584 11.6985 13.5904 11.7665 13.5565 11.8525L12.8994 13.5186C12.8162 13.7297 12.5175 13.7297 12.4343 13.5186L11.7771 11.8525C11.7433 11.7665 11.6753 11.6985 11.5894 11.6647L9.92319 11.0075C9.71213 10.9243 9.71213 10.6256 9.92319 10.5424L11.5894 9.88528C11.6753 9.85141 11.7433 9.78341 11.7771 9.69751L12.4343 8.03135Z" fill="#0F0F11"/>
</svg>
