<svg width="19" height="19" viewBox="0 0 19 19" fill="none" xmlns="http://www.w3.org/2000/svg">
<g clip-path="url(#clip0_610_4934)">
<path d="M17.1581 10.2605L17.1584 10.2605C17.2992 10.2605 17.4343 10.2046 17.5339 10.105C17.6335 10.0054 17.6895 9.87036 17.6895 9.72952L17.6895 3.15617C17.6895 3.01535 17.6336 2.88034 17.534 2.78066C17.5339 2.78062 17.5339 2.78057 17.5339 2.78052M17.1581 10.2605L17.1584 1.87509C17.4982 1.87509 17.824 2.01009 18.0643 2.25026L17.5339 2.78052M17.1581 10.2605L16.6274 10.2608L16.6274 2.6253L17.1582 2.62509L17.1584 2.62509C17.1584 2.62509 17.1584 2.62509 17.1585 2.62509M17.1581 10.2605L17.1585 2.62509M17.5339 2.78052C17.4342 2.681 17.2992 2.62509 17.1585 2.62509M17.5339 2.78052L17.1585 2.62509M12.5066 2.1204L12.7629 2.24258L12.7631 2.24267C13.1732 2.43812 13.4345 2.85208 13.4345 3.3066L13.4345 10.3039C13.4345 10.5056 13.3828 10.7038 13.2843 10.8797L13.2843 10.8797L10.6134 15.6498L11.2615 16.0127L10.6134 15.6498C10.3765 16.0729 9.92945 16.335 9.44455 16.335C8.70471 16.335 8.10494 15.7352 8.10494 14.9954L8.10494 11.9641L8.10494 11.2141L7.35494 11.2141L3.13299 11.2141C2.01493 11.2141 1.16074 10.2161 1.33342 9.11135L2.13814 3.96438L2.13815 3.96435C2.32563 2.76483 3.35874 1.88066 4.57286 1.88066L11.4463 1.88066C11.8132 1.88066 12.1755 1.96257 12.5066 2.1204Z" stroke="white" stroke-opacity="0.6" stroke-width="1.5"/>
</g>
<defs>
<clipPath id="clip0_610_4934">
<rect width="18" height="18" fill="white" transform="translate(18.5 18.1084) rotate(-180)"/>
</clipPath>
</defs>
</svg>
