<svg width="23" height="23" viewBox="0 0 23 23" fill="none" xmlns="http://www.w3.org/2000/svg">
<path fill-rule="evenodd" clip-rule="evenodd" d="M1.32913 1.32937C1.76387 0.894627 2.35352 0.650391 2.96834 0.650391H11.4684C11.6733 0.650391 11.8698 0.731803 12.0148 0.876719L17.4239 6.28583C17.5688 6.43075 17.6502 6.62729 17.6502 6.83223V9.9466C17.4892 10.049 17.3388 10.1695 17.2019 10.3067L10.7164 16.8059C10.3152 17.208 10.0554 17.7296 9.97613 18.2921L9.63115 20.7414H2.96834C2.35351 20.7414 1.76387 20.4972 1.32913 20.0625C0.894383 19.6277 0.650146 19.038 0.650146 18.4232V2.96858C0.650146 2.35377 0.894383 1.76412 1.32913 1.32937ZM3.54788 10.6959C3.54788 10.1624 3.98033 9.72997 4.5138 9.72997H6.83199H9.15018C9.68364 9.72997 10.1161 10.1624 10.1161 10.6959C10.1161 11.2293 9.68364 11.6618 9.15018 11.6618H7.7979V15.9311C8.23879 16.0206 8.57063 16.4104 8.57063 16.8777C8.57063 17.4112 8.13818 17.8436 7.60472 17.8436H6.83199H4.5138C3.98033 17.8436 3.54788 17.4112 3.54788 16.8777C3.54788 16.3442 3.98033 15.9118 4.5138 15.9118H5.86607V11.6618H4.5138C3.98033 11.6618 3.54788 11.2293 3.54788 10.6959ZM19.5456 11.6707C19.416 11.5412 19.2405 11.4685 19.0573 11.4686C18.8742 11.4687 18.6986 11.5416 18.5693 11.6712L12.0839 18.1703C11.9783 18.2762 11.9099 18.4134 11.8891 18.5615L11.4751 21.5007C11.445 21.7147 11.5169 21.9304 11.6693 22.0836C11.8218 22.2368 12.0372 22.3097 12.2514 22.2805L15.1905 21.8804C15.34 21.86 15.4786 21.7912 15.5853 21.6846L22.0844 15.1854C22.354 14.9159 22.354 14.4791 22.0844 14.2097L19.5456 11.6707Z" fill="white"/>
</svg>
