<svg width="25" height="25" viewBox="0 0 25 25" fill="none" xmlns="http://www.w3.org/2000/svg">
<g clip-path="url(#clip0_841_17413)">
<path fill-rule="evenodd" clip-rule="evenodd" d="M11.4056 7.95127V14.4492H0.908936C0.928266 12.3119 1.02844 10.7248 1.13544 9.61377C1.27686 8.14527 2.35371 7.03357 3.75318 6.77672C3.5305 6.29717 3.40601 5.76252 3.40601 5.19922C3.40601 3.14356 4.97655 1.44922 7.15601 1.44922C8.96311 1.44922 10.4054 2.50077 11.36 3.65994C11.6687 4.03481 11.9354 4.43093 12.156 4.82519C12.3766 4.43093 12.6434 4.03481 12.9521 3.65994C13.9067 2.50077 15.3489 1.44922 17.156 1.44922C19.3355 1.44922 20.906 3.14356 20.906 5.19922C20.906 5.76262 20.7815 6.29727 20.5588 6.77687C21.9579 7.03397 23.0344 8.14552 23.1758 9.61377C23.2827 10.7248 23.3829 12.3119 23.4023 14.4492H12.9056V7.95127C12.6611 7.94997 12.4112 7.94932 12.156 7.94932C11.9005 7.94932 11.6504 7.94997 11.4056 7.95127ZM4.90601 5.19922C4.90601 3.94117 5.83546 2.94922 7.15601 2.94922C8.34891 2.94922 9.40666 3.64766 10.2021 4.6135C10.5943 5.08977 10.9017 5.60785 11.1088 6.08422C11.1653 6.21397 11.2127 6.33697 11.2519 6.45202C8.79056 6.46757 6.86446 6.54527 5.42381 6.63537C5.09988 6.24532 4.90601 5.74542 4.90601 5.19922ZM18.8882 6.63542C17.4476 6.54532 15.5215 6.46762 13.0602 6.45207C13.0994 6.33697 13.1468 6.21397 13.2032 6.08422C13.4103 5.60785 13.7177 5.08977 14.11 4.6135C14.9054 3.64766 15.9631 2.94922 17.156 2.94922C18.4766 2.94922 19.406 3.94117 19.406 5.19922C19.406 5.74542 19.2121 6.24537 18.8882 6.63542ZM11.4056 15.9492V23.9473C7.99926 23.9295 5.60171 23.7929 4.08457 23.6658C2.52649 23.5353 1.28783 22.3671 1.13544 20.7847C1.02844 19.6736 0.928266 18.0865 0.908936 15.9492H11.4056ZM12.9055 23.9473V15.9492H23.4022C23.3828 18.0865 23.2826 19.6736 23.1757 20.7847C23.0233 22.3671 21.7846 23.5353 20.2265 23.6658C18.7094 23.7929 16.3118 23.9295 12.9055 23.9473Z" fill="#D5FF40"/>
</g>
<defs>
<clipPath id="clip0_841_17413">
<rect width="24" height="24" fill="white" transform="translate(0.156006 0.699219)"/>
</clipPath>
</defs>
</svg>
