<svg width="24" height="24" viewBox="0 0 24 24" fill="none" xmlns="http://www.w3.org/2000/svg">
<g clip-path="url(#clip0_287_7386)">
<path d="M7.74316 11.3525C7.76144 10.9394 7.78804 10.5305 7.82182 10.1256C7.95498 8.52784 9.20471 7.261 10.8035 7.14186C11.9207 7.0586 13.1629 7.01953 14.5717 7.01953C15.9805 7.01953 17.2228 7.0586 18.34 7.14186C19.9387 7.261 21.1884 8.52784 21.3216 10.1256C21.3899 10.9435 21.429 11.7773 21.429 12.6298C21.429 13.4223 21.3952 14.1986 21.3357 14.961" stroke="white" stroke-width="1.71429"/>
<path d="M18.7777 7.17927C19.4046 6.95326 20.5005 6.46005 21.0297 6.21338C22.9177 5.10485 22.3792 3.4331 21.9451 2.69395C21.5111 1.9548 20.3137 0.669924 18.4257 1.77847C16.6518 2.82003 14.8588 5.8607 14.5536 7.03385C14.2484 5.8607 12.4555 2.82007 10.6815 1.7785C8.7935 0.669962 7.59607 1.95483 7.16208 2.69398C6.7281 3.43315 6.18957 5.10489 8.07758 6.21341C8.60671 6.46008 9.70266 6.9533 10.3296 7.17931" stroke="white" stroke-width="1.71429" stroke-linejoin="round"/>
<path d="M14.5713 7.0293V12.0008" stroke="white" stroke-width="1.71429" stroke-linecap="round" stroke-linejoin="round"/>
<path d="M1.46397 10.8284L2.68618 10.7527C4.09668 10.6655 5.51218 10.7967 6.88258 11.1419L8.91192 11.653C10.0142 11.9306 10.7455 12.9753 10.6292 14.106C10.4931 15.4296 9.2605 16.3584 7.95061 16.1243L6.03612 15.7823L12.7863 16.9928L19.7781 15.3333C20.909 15.0649 22.048 15.7464 22.3461 16.8699C22.6229 17.9135 22.0807 19.0002 21.0804 19.4065L15.4878 21.6788C12.7673 22.7842 9.73592 22.8534 6.96781 21.8734L1.16943 19.8205" stroke="white" stroke-width="1.71429" stroke-linecap="round" stroke-linejoin="round"/>
</g>
<defs>
<clipPath id="clip0_287_7386">
<rect width="24" height="24" fill="white"/>
</clipPath>
</defs>
</svg>
