<svg width="24" height="24" viewBox="0 0 24 24" fill="none" xmlns="http://www.w3.org/2000/svg">
<path d="M22.5326 12.2474C22.5326 11.5233 22.4684 10.8358 22.3584 10.1666H12.0001V14.3008H17.9309C17.6651 15.6574 16.8859 16.8033 15.7309 17.5824V20.3324H19.2693C21.3409 18.4166 22.5326 15.5933 22.5326 12.2474Z" fill="#4285F4"/>
<path d="M12.0001 22.9999C14.9701 22.9999 17.4543 22.0099 19.2693 20.3324L15.7309 17.5824C14.7409 18.2424 13.4851 18.6457 12.0001 18.6457C9.1309 18.6457 6.70173 16.7115 5.8309 14.099H2.18256V16.9316C3.9884 20.5249 7.7009 22.9999 12.0001 22.9999Z" fill="#34A853"/>
<path d="M5.8309 14.099C5.60173 13.439 5.4825 12.7333 5.4825 11.9999C5.4825 11.2666 5.61083 10.5608 5.83083 9.90076V7.06826H2.1825C1.43083 8.55326 1 10.2216 1 11.9999C1 13.7783 1.43089 15.4466 2.18256 16.9316L5.8309 14.099Z" fill="#FBBC05"/>
<path d="M12.0001 5.35417C13.6226 5.35417 15.0709 5.91334 16.2167 7.00417L19.3517 3.86917C17.4542 2.09083 14.9701 1 12.0001 1C7.7009 1 3.98833 3.47493 2.1825 7.06826L5.83083 9.90076C6.70167 7.28826 9.1309 5.35417 12.0001 5.35417Z" fill="#EA4335"/>
</svg>
