<svg height="256" viewBox="0 0 256 256" width="256" xmlns="http://www.w3.org/2000/svg"><g fill="#000" stroke-miterlimit="10" stroke-width="0" transform="matrix(2.81 0 0 2.81 1.406593 1.406593)"><path d="m48.831 86.169c-13.336 0-25.904-6.506-33.62-17.403-2.333-3.295-4.163-6.901-5.437-10.717l5.606-1.872c1.09 3.265 2.657 6.352 4.654 9.174 6.61 9.336 17.376 14.908 28.797 14.908 19.443 0 35.26-15.817 35.26-35.26 0-19.442-15.817-35.259-35.26-35.259-19.442 0-35.26 15.818-35.26 35.26h-5.91c0-22.701 18.468-41.169 41.169-41.169 22.702 0 41.17 18.468 41.17 41.169s-18.468 41.169-41.169 41.169z"/><path d="m64.67 61.69-18.79-15.28v-27.38h5.9v24.56l16.62 13.51z"/><path d="m21.23 40.41-10.61 10.61-10.62-10.61z"/></g></svg>