<?xml version="1.0" encoding="utf-8"?>
<!-- Generator: Adobe Illustrator 22.0.0, SVG Export Plug-In . SVG Version: 6.00 Build 0)  -->
<svg version="1.1" id="Layer_1" xmlns="http://www.w3.org/2000/svg" xmlns:xlink="http://www.w3.org/1999/xlink" x="0px" y="0px"
	 viewBox="0 0 32 32" style="enable-background:new 0 0 32 32;" xml:space="preserve">
<g>
	<path d="M6,17c-0.6,0-1,0.4-1,1v8c0,0.6,0.4,1,1,1h20c0.6,0,1-0.4,1-1v-8c0-0.6-0.4-1-1-1s-1,0.4-1,1v7H7v-7C7,17.4,6.6,17,6,17z"
		/>
	<path d="M16.6,4.2c-0.3-0.2-0.8-0.2-1.2,0l-14,10c-0.4,0.3-0.6,0.9-0.2,1.4s0.9,0.6,1.4,0.2L16,6.2l13.4,9.6
		c0.2,0.1,0.4,0.2,0.6,0.2c0.3,0,0.6-0.1,0.8-0.4c0.3-0.4,0.2-1.1-0.2-1.4L16.6,4.2z"/>
</g>
</svg>
