<svg width="16" height="16" viewBox="0 0 16 16" fill="none" xmlns="http://www.w3.org/2000/svg">
<g clip-path="url(#clip0_610_4916)">
<path d="M9.25337 14.3335H6.75337C6.69584 14.3332 6.6392 14.3478 6.58897 14.3758C6.53874 14.4038 6.49661 14.4444 6.4667 14.4935C6.43861 14.5422 6.42383 14.5974 6.42383 14.6535C6.42383 14.7097 6.43861 14.7649 6.4667 14.8135L6.6867 15.2602C6.79607 15.4803 6.96415 15.666 7.17239 15.7965C7.38063 15.9271 7.62091 15.9976 7.8667 16.0002H8.13337C8.38255 16.0013 8.62707 15.9326 8.83917 15.8018C9.05127 15.671 9.22248 15.4834 9.33337 15.2602L9.55337 14.8135C9.58145 14.7649 9.59624 14.7097 9.59624 14.6535C9.59624 14.5974 9.58145 14.5422 9.55337 14.4935C9.52287 14.4419 9.47874 14.3997 9.42582 14.3714C9.37291 14.3432 9.31324 14.3301 9.25337 14.3335Z" fill="#0F0F11"/>
<path d="M8.00004 3C8.17685 3 8.34642 2.92976 8.47145 2.80474C8.59647 2.67971 8.66671 2.51014 8.66671 2.33333V0.666667C8.66671 0.489856 8.59647 0.320286 8.47145 0.195262C8.34642 0.0702379 8.17685 0 8.00004 0C7.82323 0 7.65366 0.0702379 7.52864 0.195262C7.40361 0.320286 7.33337 0.489856 7.33337 0.666667V2.33333C7.33337 2.51014 7.40361 2.67971 7.52864 2.80474C7.65366 2.92976 7.82323 3 8.00004 3Z" fill="#0F0F11"/>
<path d="M14.1267 2.53956C14.0018 2.4154 13.8328 2.3457 13.6567 2.3457C13.4806 2.3457 13.3116 2.4154 13.1867 2.53956L12.0001 3.71956C11.9376 3.78154 11.888 3.85527 11.8541 3.93651C11.8203 4.01775 11.8029 4.10489 11.8029 4.1929C11.8029 4.28091 11.8203 4.36804 11.8541 4.44928C11.888 4.53052 11.9376 4.60426 12.0001 4.66623C12.0623 4.72802 12.1362 4.7769 12.2175 4.81008C12.2987 4.84326 12.3857 4.86007 12.4734 4.85956C12.6483 4.85883 12.8159 4.78939 12.9401 4.66623L14.1201 3.48623C14.183 3.4247 14.2331 3.35131 14.2675 3.27031C14.3019 3.18931 14.32 3.1023 14.3206 3.01429C14.3212 2.92628 14.3044 2.83902 14.2711 2.75754C14.2379 2.67606 14.1888 2.60198 14.1267 2.53956Z" fill="#0F0F11"/>
<path d="M15.3334 8H14C13.8232 8 13.6537 8.07024 13.5286 8.19526C13.4036 8.32029 13.3334 8.48986 13.3334 8.66667C13.3334 8.84348 13.4036 9.01305 13.5286 9.13807C13.6537 9.2631 13.8232 9.33333 14 9.33333H15.3334C15.5102 9.33333 15.6798 9.2631 15.8048 9.13807C15.9298 9.01305 16 8.84348 16 8.66667C16 8.48986 15.9298 8.32029 15.8048 8.19526C15.6798 8.07024 15.5102 8 15.3334 8Z" fill="#0F0F11"/>
<path d="M3.99998 3.72019L2.81332 2.54019C2.68578 2.43097 2.52173 2.3739 2.35395 2.38038C2.18616 2.38686 2.027 2.45642 1.90828 2.57515C1.78955 2.69388 1.71999 2.85303 1.71351 3.02082C1.70703 3.1886 1.7641 3.35265 1.87332 3.48019L3.05332 4.66685C3.17749 4.79002 3.34509 4.85945 3.51998 4.86019C3.60884 4.86158 3.69708 4.84519 3.77951 4.81199C3.86194 4.77879 3.9369 4.72944 3.99998 4.66685C4.06247 4.60488 4.11207 4.53114 4.14591 4.44991C4.17976 4.36867 4.19718 4.28153 4.19718 4.19352C4.19718 4.10551 4.17976 4.01838 4.14591 3.93714C4.11207 3.8559 4.06247 3.78216 3.99998 3.72019Z" fill="#0F0F11"/>
<path d="M2 8H0.666667C0.489856 8 0.320286 8.07024 0.195262 8.19526C0.0702379 8.32029 0 8.48986 0 8.66667C0 8.84348 0.0702379 9.01305 0.195262 9.13807C0.320286 9.2631 0.489856 9.33333 0.666667 9.33333H2C2.17681 9.33333 2.34638 9.2631 2.4714 9.13807C2.59643 9.01305 2.66667 8.84348 2.66667 8.66667C2.66667 8.48986 2.59643 8.32029 2.4714 8.19526C2.34638 8.07024 2.17681 8 2 8Z" fill="#0F0F11"/>
<path d="M8.00002 4C7.07849 4.00147 6.18142 4.29668 5.43911 4.84275C4.6968 5.38882 4.1479 6.15732 3.87215 7.03662C3.59639 7.91593 3.60813 8.86025 3.90566 9.73243C4.20319 10.6046 4.77103 11.3592 5.52668 11.8867C5.57064 11.9173 5.60639 11.9582 5.63081 12.0059C5.65522 12.0535 5.66754 12.1065 5.66668 12.16V12.6667C5.66668 12.8435 5.73692 13.013 5.86195 13.1381C5.98697 13.2631 6.15654 13.3333 6.33335 13.3333H9.66668C9.84349 13.3333 10.0131 13.2631 10.1381 13.1381C10.2631 13.013 10.3333 12.8435 10.3333 12.6667V12.16C10.3326 12.1057 10.3457 12.0522 10.3713 12.0044C10.397 11.9566 10.4344 11.9161 10.48 11.8867C11.2361 11.3589 11.8042 10.6037 12.1016 9.73085C12.3989 8.85802 12.4102 7.91308 12.1335 7.03345C11.8569 6.15381 11.307 5.38535 10.5636 4.8398C9.82016 4.29424 8.92212 4.00005 8.00002 4Z" fill="#0F0F11"/>
</g>
<defs>
<clipPath id="clip0_610_4916">
<rect width="16" height="16" fill="white"/>
</clipPath>
</defs>
</svg>
