<svg width="19" height="19" viewBox="0 0 19 19" fill="none" xmlns="http://www.w3.org/2000/svg">
<g clip-path="url(#clip0_610_4931)">
<path d="M1.8419 7.95625H1.84158C1.70075 7.95625 1.56568 8.0122 1.46608 8.11179C1.3665 8.21137 1.31055 8.34644 1.31055 8.48728V15.0606C1.31055 15.2014 1.36643 15.3365 1.46601 15.4361C1.46605 15.4362 1.4661 15.4362 1.46615 15.4363M1.8419 7.95625L1.84158 16.3417C1.50183 16.3417 1.17599 16.2067 0.935751 15.9665L1.46615 15.4363M1.8419 7.95625L2.3726 7.95602V15.5915L1.84185 15.5917H1.84158C1.84157 15.5917 1.84156 15.5917 1.84155 15.5917M1.8419 7.95625L1.84155 15.5917M1.46615 15.4363C1.56578 15.5358 1.70083 15.5917 1.84155 15.5917M1.46615 15.4363L1.84155 15.5917M6.49337 16.0964L6.23713 15.9742L6.23695 15.9741C5.8268 15.7787 5.5655 15.3647 5.5655 14.9102V7.91286C5.5655 7.71124 5.61722 7.51299 5.71572 7.33708L5.71573 7.33707L8.3866 2.56698L7.73849 2.20409L8.3866 2.56697C8.62349 2.14389 9.07055 1.88184 9.55545 1.88184C10.2953 1.88184 10.8951 2.4816 10.8951 3.22145V6.25266V7.00266H11.6451H15.867C16.9851 7.00266 17.8393 8.00072 17.6666 9.10545L16.8619 14.2524L16.8619 14.2524C16.6744 15.452 15.6413 16.3361 14.4271 16.3361H7.55366C7.1868 16.3361 6.82455 16.2542 6.49337 16.0964Z" stroke="white" stroke-opacity="0.6" stroke-width="1.5"/>
</g>
<defs>
<clipPath id="clip0_610_4931">
<rect width="18" height="18" fill="white" transform="translate(0.5 0.108398)"/>
</clipPath>
</defs>
</svg>
