<svg width="25" height="25" viewBox="0 0 25 25" fill="none" xmlns="http://www.w3.org/2000/svg">
<g clip-path="url(#clip0_432_6044)">
<path d="M5.50275 10.5881C5.42895 10.5795 5.35389 10.5752 5.27784 10.5752H4.7359C3.6151 10.5752 2.72233 11.5086 2.75066 12.6185C2.87479 17.4827 5.8922 21.0558 10.3942 21.8898C10.4223 22.1654 10.4549 22.4409 10.4927 22.7142C10.5859 23.3902 11.1081 24.0024 11.8899 24.0558C12.0615 24.0675 12.264 24.0752 12.5002 24.0752C12.7364 24.0752 12.9389 24.0675 13.1105 24.0558C13.8925 24.0024 14.4139 23.3903 14.5084 22.7158C14.5476 22.4355 14.5814 22.155 14.6103 21.8742C19.0677 21.0119 22.0481 17.4519 22.1714 12.6185C22.1997 11.5086 21.307 10.5752 20.1862 10.5752H19.6444C19.5949 10.5752 19.5458 10.577 19.4973 10.5806C19.4921 11.2836 19.4799 11.9184 19.4624 12.4911C19.4046 14.3863 18.7138 16.1159 17.4415 17.3796C16.1647 18.6477 14.4236 19.3252 12.5 19.3252C10.5764 19.3252 8.8353 18.6477 7.55855 17.3796C6.28625 16.1159 5.59545 14.3863 5.5376 12.4911C5.5202 11.9204 5.50795 11.2881 5.50275 10.5881Z" fill="white"/>
<path d="M12.5 1.5752C10.8757 1.5752 9.4611 2.14288 8.4394 3.15767C7.4194 4.17079 6.83625 5.58426 6.78705 7.19737C6.76395 7.95467 6.75 8.82562 6.75 9.82522C6.75 10.8248 6.76395 11.6957 6.78705 12.453C6.83625 14.0661 7.4194 15.4796 8.4394 16.4927C9.4611 17.5075 10.8757 18.0752 12.5 18.0752C14.1243 18.0752 15.5389 17.5075 16.5606 16.4927C17.5806 15.4796 18.1637 14.0661 18.2129 12.453C18.2361 11.6957 18.25 10.8248 18.25 9.82522C18.25 8.82562 18.2361 7.95467 18.2129 7.19737C18.1637 5.58426 17.5806 4.17079 16.5606 3.15767C15.5389 2.14288 14.1243 1.5752 12.5 1.5752Z" fill="white"/>
</g>
<defs>
<clipPath id="clip0_432_6044">
<rect width="24" height="24" fill="white" transform="translate(0.5 0.824219)"/>
</clipPath>
</defs>
</svg>
