<svg width="18" height="18" viewBox="0 0 18 18" fill="none" xmlns="http://www.w3.org/2000/svg">
<path fill-rule="evenodd" clip-rule="evenodd" d="M16.8574 2.4074C16.8574 2.74497 16.7238 3.06882 16.4858 3.30822L15.8086 3.98543C15.7473 4.04206 15.6683 4.0759 15.585 4.08126C15.5431 4.08177 15.5016 4.07351 15.4631 4.05701C15.4246 4.0405 15.3899 4.01612 15.3614 3.98543L14.007 2.63101C13.9763 2.60249 13.9519 2.56786 13.9354 2.52935C13.9189 2.49084 13.9107 2.4493 13.9112 2.4074C13.916 2.32396 13.9499 2.24485 14.007 2.1838L14.6778 1.50658C14.7965 1.38778 14.9374 1.29354 15.0925 1.22924C15.2476 1.16493 15.4139 1.13184 15.5818 1.13184C15.7497 1.13184 15.916 1.16493 16.0711 1.22924C16.2263 1.29354 16.3672 1.38778 16.4858 1.50658C16.7238 1.74599 16.8574 2.06984 16.8574 2.4074ZM13.5534 3.08506C13.4926 3.02612 13.4112 2.99317 13.3266 2.99317C13.2419 2.99317 13.1606 3.02612 13.0998 3.08506L8.11014 8.08109C8.07779 8.10808 8.05348 8.14344 8.03986 8.18331L7.13265 10.4449C7.11009 10.5031 7.10472 10.5666 7.11718 10.6277C7.12964 10.6889 7.1594 10.7452 7.20293 10.7899C7.24883 10.8315 7.30508 10.86 7.36579 10.8724C7.42649 10.8848 7.48941 10.8806 7.54793 10.8602L9.80955 9.953C9.85063 9.93813 9.88777 9.9141 9.91816 9.88272L14.9078 4.89309C14.9674 4.83372 15.0018 4.75359 15.0036 4.66948C15.0021 4.58342 14.9678 4.50118 14.9078 4.43948L13.5534 3.08506ZM10.5954 10.5592C10.4737 10.6831 10.3281 10.7809 10.1673 10.8467L7.90569 11.7475C7.67348 11.8405 7.41911 11.8632 7.17409 11.813C6.92908 11.7627 6.70421 11.6416 6.52735 11.4648C6.35049 11.2879 6.22943 11.063 6.17916 10.818C6.1289 10.573 6.15166 10.3186 6.2446 10.0864L7.14542 7.83119C7.21498 7.66907 7.31471 7.52165 7.43931 7.39675L11.1959 3.64015C11.2187 3.61819 11.2345 3.58995 11.2412 3.55901C11.2479 3.52808 11.2453 3.49585 11.2336 3.46641C11.222 3.43698 11.2019 3.41166 11.1758 3.39368C11.1498 3.3757 11.119 3.36587 11.0873 3.36543H3.84242C3.31377 3.36543 2.80676 3.57544 2.43295 3.94926C2.05913 4.32307 1.84912 4.83008 1.84912 5.35873V14.1497C1.84912 14.6784 2.05913 15.1854 2.43295 15.5592C2.80676 15.933 3.31377 16.143 3.84242 16.143H12.6334C13.162 16.143 13.669 15.933 14.0429 15.5592C14.4167 15.1854 14.6267 14.6784 14.6267 14.1497V6.91121C14.6262 6.87956 14.6164 6.84875 14.5984 6.8227C14.5805 6.79665 14.5551 6.77653 14.5257 6.76489C14.4963 6.75325 14.464 6.75062 14.4331 6.75734C14.4022 6.76405 14.3739 6.7798 14.352 6.8026L10.5954 10.5592Z" fill="white"/>
</svg>
