<svg width="13" height="13" viewBox="0 0 13 13" fill="none" xmlns="http://www.w3.org/2000/svg">
<path d="M9.06074 3.00506L9.0608 3.00511L9.06684 2.99886C9.13141 2.932 9.20865 2.87867 9.29405 2.84199C9.37946 2.8053 9.47131 2.78599 9.56425 2.78518C9.6572 2.78438 9.74938 2.80209 9.8354 2.83728C9.92143 2.87248 9.99959 2.92446 10.0653 2.99018C10.131 3.05591 10.183 3.13406 10.2182 3.22009C10.2534 3.30612 10.2711 3.3983 10.2703 3.49124C10.2695 3.58419 10.2502 3.67604 10.2135 3.76144C10.1768 3.84684 10.1235 3.92408 10.0566 3.98866L10.0566 3.9886L10.0504 3.99475L9.92819 4.11699L8.9385 3.1273L9.06074 3.00506ZM7.38282 4.68298L8.37314 5.67261L3.8453 10.1999H2.85559V9.21021L7.38282 4.68298Z" fill="white" stroke="white"/>
</svg>
