<svg width="25" height="25" viewBox="0 0 25 25" fill="none" xmlns="http://www.w3.org/2000/svg">
<g clip-path="url(#clip0_561_19748)">
<path d="M12.7944 23.2137C18.7117 23.2137 23.5086 18.4168 23.5086 12.4994C23.5086 6.5821 18.7117 1.78516 12.7944 1.78516C6.87703 1.78516 2.08008 6.5821 2.08008 12.4994C2.08008 18.4168 6.87703 23.2137 12.7944 23.2137Z" stroke="#0F0F11" stroke-width="2" stroke-linecap="round" stroke-linejoin="round"/>
<path d="M12.7947 13.4936C14.865 13.4936 16.5434 11.8152 16.5434 9.74486C16.5434 7.67447 14.865 5.99609 12.7947 5.99609C10.7243 5.99609 9.0459 7.67447 9.0459 9.74486C9.0459 11.8152 10.7243 13.4936 12.7947 13.4936Z" stroke="#0F0F11" stroke-width="2" stroke-linecap="round" stroke-linejoin="round"/>
<path d="M19.1447 21.13C17.3677 22.4397 15.1715 23.2137 12.7945 23.2137C10.4176 23.2137 8.22143 22.4397 6.44434 21.13C6.79825 19.7972 7.56375 18.6061 8.63651 17.7292C9.80998 16.77 11.279 16.2461 12.7945 16.2461C14.3101 16.2461 15.7791 16.77 16.9526 17.7292C18.0253 18.6061 18.7909 19.7972 19.1447 21.13Z" stroke="#0F0F11" stroke-width="2" stroke-linecap="round" stroke-linejoin="round"/>
</g>
<defs>
<clipPath id="clip0_561_19748">
<rect width="24" height="24" fill="white" transform="translate(0.794434 0.5)"/>
</clipPath>
</defs>
</svg>
