<svg width="24" height="24" viewBox="0 0 24 24" fill="none" xmlns="http://www.w3.org/2000/svg">
<path d="M10.4759 15.3842V14.3762C10.4759 13.6082 10.6199 12.9842 10.9079 12.5042C11.2119 12.0242 11.7239 11.6162 12.4439 11.2802L12.9719 11.0402C13.7399 10.7042 14.3399 10.3202 14.7719 9.88816C15.2039 9.45616 15.4199 8.85616 15.4199 8.08816C15.4199 7.52816 15.2759 7.05616 14.9879 6.67216C14.6999 6.28816 14.3079 5.99216 13.8119 5.78416C13.3159 5.57616 12.7479 5.47216 12.1079 5.47216C11.4679 5.47216 10.8759 5.58416 10.3319 5.80816C9.80389 6.01616 9.37989 6.34416 9.05989 6.79216C8.73989 7.24016 8.57989 7.80016 8.57989 8.47216V9.14416H6.03589V8.47216C6.03589 7.38416 6.29989 6.44816 6.82789 5.66416C7.37189 4.88016 8.09989 4.28816 9.01189 3.88816C9.92389 3.47216 10.9559 3.26416 12.1079 3.26416C13.2439 3.26416 14.2519 3.47216 15.1319 3.88816C16.0119 4.30416 16.6999 4.87216 17.1959 5.59216C17.7079 6.31216 17.9639 7.14416 17.9639 8.08816C17.9639 9.01616 17.7879 9.79216 17.4359 10.4162C17.0999 11.0242 16.6599 11.5202 16.1159 11.9042C15.5719 12.2882 14.9959 12.6162 14.3879 12.8882L13.8599 13.1282C13.5719 13.2562 13.3639 13.4162 13.2359 13.6082C13.1239 13.8002 13.0679 14.0882 13.0679 14.4722V15.3842H10.4759ZM11.8199 20.7362C11.2759 20.7362 10.8119 20.5522 10.4279 20.1842C10.0599 19.8162 9.87589 19.3442 9.87589 18.7682C9.87589 18.1922 10.0599 17.7282 10.4279 17.3762C10.8119 17.0082 11.2759 16.8242 11.8199 16.8242C12.3959 16.8242 12.8679 17.0082 13.2359 17.3762C13.6039 17.7282 13.7879 18.1922 13.7879 18.7682C13.7879 19.3442 13.6039 19.8162 13.2359 20.1842C12.8679 20.5522 12.3959 20.7362 11.8199 20.7362Z" fill="white"/>
</svg>
