<svg width="25" height="25" viewBox="0 0 25 25" fill="none" xmlns="http://www.w3.org/2000/svg">
<g clip-path="url(#clip0_841_17866)">
<path d="M8.53735 11.5653C8.55563 11.1523 8.58223 10.7434 8.61601 10.3384C8.74917 8.74074 9.9989 7.4739 11.5977 7.35475C12.7149 7.27149 13.9571 7.23242 15.3659 7.23242C16.7747 7.23242 18.017 7.27149 19.1342 7.35475C20.7329 7.4739 21.9826 8.74074 22.1158 10.3384C22.1841 11.1564 22.2231 11.9902 22.2231 12.8427C22.2231 13.6352 22.1894 14.4115 22.1299 15.1739" stroke="#0F0F11" stroke-width="1.71429"/>
<path d="M19.5721 7.39412C20.199 7.16811 21.2949 6.67489 21.8241 6.42822C23.7121 5.3197 23.1736 3.64794 22.7396 2.90879C22.3055 2.16964 21.1081 0.884768 19.2201 1.99331C17.4462 3.03488 15.6532 6.07554 15.3481 7.2487C15.0429 6.07554 13.2499 3.03491 11.4759 1.99335C9.58794 0.884806 8.39051 2.16968 7.95652 2.90883C7.52253 3.64799 6.984 5.31973 8.87202 6.42826C9.40115 6.67492 10.4971 7.16814 11.1241 7.39415" stroke="#0F0F11" stroke-width="1.71429" stroke-linejoin="round"/>
<path d="M15.3662 7.24023V12.2117V7.24023Z" fill="#0F0F11"/>
<path d="M15.3662 7.24023V12.2117" stroke="#0F0F11" stroke-width="1.71429" stroke-linecap="round" stroke-linejoin="round"/>
<path d="M2.25841 11.0412L3.48061 10.9656C4.89111 10.8784 6.30661 11.0096 7.67701 11.3548L9.70635 11.8659C10.8086 12.1435 11.54 13.1882 11.4237 14.3189C11.2875 15.6425 10.0549 16.5713 8.74505 16.3372L6.83055 15.9952L13.5807 17.2056L20.5725 15.5462C21.7034 15.2778 22.8424 15.9593 23.1405 17.0828C23.4174 18.1264 22.8751 19.2131 21.8749 19.6194L16.2823 21.8917C13.5618 22.9971 10.5304 23.0663 7.76225 22.0863L1.96387 20.0334" stroke="#0F0F11" stroke-width="1.71429" stroke-linecap="round" stroke-linejoin="round"/>
</g>
<defs>
<clipPath id="clip0_841_17866">
<rect width="24" height="24" fill="white" transform="translate(0.794434 0.212891)"/>
</clipPath>
</defs>
</svg>
