<svg width="25" height="24" viewBox="0 0 25 24" fill="none" xmlns="http://www.w3.org/2000/svg">
<g clip-path="url(#clip0_561_18454)">
<path fill-rule="evenodd" clip-rule="evenodd" d="M8.54803 1.53516C8.23592 1.53516 7.94849 1.70481 7.79765 1.97804L6.05725 5.13059L5.49199 5.17931L5.35529 5.19111C3.32239 5.36667 1.65014 6.92934 1.35157 8.95289C1.13318 10.433 0.928711 12.0048 0.928711 13.6233C0.928711 15.2418 1.13318 16.8135 1.35157 18.2938C1.65014 20.3173 3.32239 21.8799 5.35529 22.0554L5.50813 22.0686C7.73765 22.2613 10.0876 22.4643 12.5001 22.4643C14.9127 22.4643 17.2626 22.2613 19.4922 22.0686L19.6449 22.0554C21.6779 21.8799 23.3502 20.3173 23.6487 18.2938C23.8671 16.8135 24.0716 15.2418 24.0716 13.6233C24.0716 12.0048 23.8671 10.433 23.6487 8.95289C23.3502 6.92936 21.6779 5.36668 19.6449 5.19111L19.5073 5.17923L18.9429 5.13059L17.2026 1.97804C17.0518 1.70481 16.7643 1.53516 16.4522 1.53516H8.54803ZM9.16815 13.7017H9.43088C9.78883 13.7017 10.1091 13.4793 10.2341 13.1439C10.3591 12.8085 10.2625 12.4307 9.99181 12.1965L8.62813 11.0163C8.30612 10.7375 7.8283 10.7375 7.50629 11.0163L6.14261 12.1965C5.87196 12.4307 5.77537 12.8085 5.90036 13.1439C6.02535 13.4793 6.3456 13.7017 6.70354 13.7017H7.01333C7.24443 16.5295 9.61263 18.7523 12.5 18.7523C13.292 18.7523 14.0477 18.5845 14.731 18.2812C15.2718 18.0412 15.5158 17.4083 15.2758 16.8674C15.0358 16.3265 14.4028 16.0826 13.8619 16.3226C13.4469 16.5067 12.9869 16.6095 12.5 16.6095C10.7972 16.6095 9.39005 15.3437 9.16815 13.7017ZM11.1871 10.1513C11.589 9.98057 12.032 9.88561 12.5 9.88561C14.1122 9.88561 15.4595 11.0204 15.7865 12.5349H15.5694C15.2115 12.5349 14.8912 12.7573 14.7662 13.0927C14.6412 13.4281 14.7378 13.8059 15.0085 14.0401L16.3721 15.2204C16.6942 15.4991 17.172 15.4991 17.494 15.2204L18.8577 14.0401C19.1283 13.8059 19.2249 13.4281 19.1 13.0927C18.975 12.7573 18.6546 12.5349 18.2967 12.5349H17.9593C17.6097 9.8313 15.2987 7.74275 12.5 7.74275C11.739 7.74275 11.0115 7.89774 10.3495 8.1789C9.80482 8.41019 9.5508 9.03923 9.78209 9.58388C10.0134 10.1285 10.6424 10.3826 11.1871 10.1513Z" fill="white"/>
</g>
<defs>
<clipPath id="clip0_561_18454">
<rect width="24" height="24" fill="white" transform="translate(0.5)"/>
</clipPath>
</defs>
</svg>
