<svg width="24" height="24" viewBox="0 0 24 24" fill="none" xmlns="http://www.w3.org/2000/svg">
<path d="M2.83216 0.999317C1.68372 0.601043 0.62643 1.68206 1.06544 2.82053C2.11956 5.55419 3.40161 8.26524 4.00622 9.50859C4.25592 10.022 4.69572 10.4137 5.22835 10.6109L8.98015 12.0005L5.22835 13.39C4.69572 13.5873 4.25592 13.9789 4.00622 14.4924C3.40161 15.7357 2.11956 18.4468 1.06544 21.1805C0.62643 22.3189 1.68372 23.4 2.83216 23.0017C6.6912 21.6634 14.8325 18.5021 21.841 13.5428C22.9123 12.7847 22.9123 11.2162 21.841 10.4582C14.8325 5.49889 6.69115 2.33762 2.83216 0.999317Z" fill="white"/>
</svg>
