<svg width="24" height="25" viewBox="0 0 24 25" fill="none" xmlns="http://www.w3.org/2000/svg">
<g clip-path="url(#clip0_1440_8846)">
<path d="M17.25 8.96289H18.75C19.1478 8.96289 19.5294 9.12093 19.8107 9.40223C20.092 9.68353 20.25 10.0651 20.25 10.4629V22.4629C20.25 22.8607 20.092 23.2422 19.8107 23.5236C19.5294 23.8049 19.1478 23.9629 18.75 23.9629H5.25C4.85218 23.9629 4.47064 23.8049 4.18934 23.5236C3.90804 23.2422 3.75 22.8607 3.75 22.4629V10.4629C3.75 10.0651 3.90804 9.68353 4.18934 9.40223C4.47064 9.12093 4.85218 8.96289 5.25 8.96289H6.75" stroke="white" stroke-width="1.5" stroke-linecap="round" stroke-linejoin="round"/>
<path d="M12 1.46289V11.9629" stroke="white" stroke-width="1.5" stroke-linecap="round" stroke-linejoin="round"/>
<path d="M8.25 5.21289L12 1.46289L15.75 5.21289" stroke="white" stroke-width="1.5" stroke-linecap="round" stroke-linejoin="round"/>
</g>
<defs>
<clipPath id="clip0_1440_8846">
<rect width="24" height="24" fill="white" transform="translate(0 0.712891)"/>
</clipPath>
</defs>
</svg>
