<svg width="24" height="24" viewBox="0 0 24 24" fill="none" xmlns="http://www.w3.org/2000/svg">
<g clip-path="url(#clip0_287_7382)">
<path d="M10.4238 2.62649C10.5911 2.35943 10.8235 2.13924 11.0992 1.9866C11.3749 1.83398 11.6849 1.75391 12 1.75391C12.3152 1.75391 12.6251 1.83398 12.9009 1.9866C13.1766 2.13924 13.409 2.35943 13.5763 2.62649L16.6342 7.46561L20.6222 7.95425C20.9529 7.9912 21.2673 8.11773 21.5315 8.32017C21.7955 8.52263 21.9995 8.79333 22.121 9.1031C22.2428 9.41287 22.2776 9.74997 22.2217 10.0781C22.166 10.4061 22.0216 10.7128 21.8044 10.9649L18.4785 14.7795L19.5503 20.0599C19.6175 20.4045 19.5849 20.761 19.4565 21.0876C19.3281 21.4144 19.109 21.6976 18.8252 21.9041C18.5378 22.1069 18.1993 22.2247 17.848 22.2442C17.4968 22.2638 17.1472 22.1841 16.8391 22.0145L12 19.3663L7.16091 22.0145C6.85281 22.1841 6.50321 22.2638 6.15202 22.2442C5.80085 22.2247 5.46223 22.1069 5.17481 21.9041C4.89098 21.6976 4.67198 21.4144 4.54353 21.0876C4.41509 20.761 4.38255 20.4045 4.44974 20.0599L5.52159 14.7795L2.19569 10.9649C1.97846 10.7128 1.83415 10.4061 1.77833 10.0781C1.72253 9.74997 1.75731 9.41287 1.87894 9.1031C2.00059 8.79333 2.20447 8.52263 2.46861 8.32017C2.73274 8.11773 3.04714 7.9912 3.37788 7.95425L7.36582 7.46561L10.4238 2.62649Z" stroke="white" stroke-width="2" stroke-linecap="round" stroke-linejoin="round"/>
</g>
<defs>
<clipPath id="clip0_287_7382">
<rect width="24" height="24" fill="white"/>
</clipPath>
</defs>
</svg>
