<svg width="30" height="31" viewBox="0 0 30 31" fill="none" xmlns="http://www.w3.org/2000/svg">
<path d="M4.39031 14.9844L0.632812 14.3594L1.27906 10.6094" stroke="#D5FF40" stroke-linecap="round" stroke-linejoin="round"/>
<path d="M21.9287 10.7197C24.7048 11.1961 27.2891 12.449 29.3825 14.3335" stroke="#D5FF40" stroke-linecap="round" stroke-linejoin="round"/>
<path d="M0.632812 14.3579C2.73084 12.4538 5.33128 11.1917 8.12531 10.7217" stroke="#D5FF40" stroke-linecap="round" stroke-linejoin="round"/>
<path d="M13.1328 8.71094C13.1328 8.37942 13.2645 8.06147 13.4989 7.82705C13.7334 7.59263 14.0513 7.46094 14.3828 7.46094C14.7143 7.46094 15.0323 7.59263 15.2667 7.82705C15.5011 8.06147 15.6328 8.37942 15.6328 8.71094V14.6534L20.5328 16.1159C20.9265 16.2295 21.2616 16.4897 21.4693 16.8429C21.6769 17.1961 21.7413 17.6155 21.6491 18.0147C21.4866 18.7197 20.7166 23.0147 20.5878 23.7347H12.9366L9.11158 17.9984C7.59283 15.6759 11.4066 14.8734 13.1328 18.7347V8.71094Z" fill="#D5FF40"/>
</svg>
