<svg width="25" height="24" viewBox="0 0 25 24" fill="none" xmlns="http://www.w3.org/2000/svg">
<g clip-path="url(#clip0_926_9654)">
<g clip-path="url(#clip1_926_9654)">
<path d="M21.9791 7.22738C21.9936 7.43162 21.9936 7.63585 21.9936 7.84197C21.9936 14.1224 17.0774 21.3657 8.08809 21.3657V21.362C5.43261 21.3657 2.83229 20.626 0.596802 19.2311C0.982931 19.2763 1.371 19.2989 1.76003 19.2999C3.96067 19.3017 6.09841 18.5836 7.8297 17.2613C5.73841 17.2227 3.90454 15.8966 3.2639 13.9606C3.99648 14.098 4.75132 14.0697 5.47035 13.8787C3.19035 13.4307 1.55003 11.4824 1.55003 9.21985C1.55003 9.19915 1.55003 9.17938 1.55003 9.15962C2.22938 9.52762 2.99003 9.73185 3.76809 9.75444C1.62067 8.35868 0.958737 5.58032 2.25551 3.40809C4.7368 6.3775 8.39777 8.18267 12.3278 8.37373C11.9339 6.72291 12.472 4.99303 13.7416 3.83256C15.71 2.03303 18.8058 2.12526 20.6562 4.03867C21.7507 3.82879 22.7997 3.4382 23.7597 2.88479C23.3949 3.98503 22.6313 4.91962 21.6113 5.5135C22.58 5.40244 23.5265 5.1502 24.4178 4.76526C23.7616 5.7215 22.9352 6.55444 21.9791 7.22738Z" fill="#1D9BF0"/>
</g>
</g>
<defs>
<clipPath id="clip0_926_9654">
<rect width="24" height="24" fill="white" transform="translate(0.5)"/>
</clipPath>
<clipPath id="clip1_926_9654">
<rect width="24" height="19.2" fill="white" transform="translate(0.5 2.40015)"/>
</clipPath>
</defs>
</svg>
