<svg width="24" height="25" viewBox="0 0 24 25" fill="none" xmlns="http://www.w3.org/2000/svg">
<path d="M10.9619 7.82567C10.9839 9.05797 11.0001 10.6906 11.0001 12.8242C11.0001 14.9578 10.9839 16.5905 10.9619 17.8228C11.2982 17.8237 11.6442 17.8242 12.0001 17.8242C16.727 17.8242 19.7182 17.7353 21.2529 17.6717C22.2124 17.632 23.0912 17.0066 23.2654 15.9842C23.3889 15.2593 23.5001 14.2194 23.5001 12.8242C23.5001 11.4291 23.3889 10.3892 23.2654 9.66422C23.0912 8.64187 22.2124 8.01647 21.2529 7.97672C19.7182 7.91312 16.727 7.82422 12.0001 7.82422C11.6442 7.82422 11.2982 7.82472 10.9619 7.82567Z" fill="white"/>
<path d="M5.0368 17.7464C5.01555 16.5233 5 14.9141 5 12.8244C5 10.7346 5.01555 9.12549 5.0368 7.90234C4.06856 7.92684 3.30995 7.95359 2.74717 7.97689C1.7877 8.01664 0.90887 8.64204 0.73466 9.66439C0.611125 10.3893 0.5 11.4292 0.5 12.8244C0.499999 14.2195 0.611125 15.2594 0.73466 15.9844C0.908865 17.0067 1.78769 17.6321 2.74717 17.6719C3.30995 17.6952 4.06856 17.7219 5.0368 17.7464Z" fill="white"/>
<path d="M11.4941 4.77142C11.4781 5.32931 11.0668 5.72798 10.5098 5.76233C10.2267 5.77978 9.86545 5.79626 9.41075 5.80782C9.45235 7.00492 9.5 9.17332 9.5 12.8242C9.5 16.4751 9.45235 18.6435 9.41075 19.8406C9.86545 19.8522 10.2267 19.8687 10.5098 19.8861C11.0668 19.9205 11.4781 20.3191 11.4941 20.877C11.4977 21.0082 11.5 21.1567 11.5 21.3242C11.5 21.4918 11.4977 21.6402 11.4941 21.7714C11.4781 22.3293 11.0668 22.728 10.5098 22.7623C9.9801 22.795 9.17725 22.8242 8 22.8242C6.82275 22.8242 6.0199 22.795 5.49025 22.7623C4.9332 22.728 4.5219 22.3293 4.50597 21.7714C4.50223 21.6402 4.5 21.4918 4.5 21.3242C4.5 21.1567 4.50223 21.0082 4.50597 20.877C4.5219 20.3191 4.9332 19.9205 5.49025 19.8861C5.77335 19.8687 6.13455 19.8522 6.58925 19.8406C6.54765 18.6435 6.5 16.4751 6.5 12.8242C6.5 9.17332 6.54765 7.00492 6.58925 5.80782C6.13455 5.79626 5.77335 5.77978 5.49025 5.76233C4.9332 5.72798 4.5219 5.32931 4.50597 4.77142C4.50223 4.64023 4.5 4.49178 4.5 4.32422C4.5 4.15666 4.50223 4.0082 4.50597 3.87701C4.5219 3.31913 4.9332 2.92045 5.49025 2.88611C6.0199 2.85345 6.82275 2.82422 8 2.82422C9.17725 2.82422 9.9801 2.85345 10.5098 2.88611C11.0668 2.92045 11.4781 3.31913 11.4941 3.87701C11.4977 4.0082 11.5 4.15666 11.5 4.32422C11.5 4.49178 11.4977 4.64023 11.4941 4.77142Z" fill="white"/>
</svg>
